<svg xmlns="http://www.w3.org/2000/svg" width="193" height="318" viewBox="0 0 193 318">
  <defs>
    <style>
      .cls-1 {
        fill: #fff;
      }

      .cls-1, .cls-3 {
        stroke: #707070;
      }

      .cls-2 {
        fill: #707070;
        font-size: 30px;
        font-family: HelveticaNeue, Helvetica Neue;
      }

      .cls-3, .cls-5 {
        fill: none;
      }

      .cls-4 {
        stroke: none;
      }
    </style>
  </defs>
  <g id="Group_4" data-name="Group 4" transform="translate(-203 -173)">
    <g id="Rectangle_1" data-name="Rectangle 1" class="cls-1" transform="translate(203 173)">
      <rect class="cls-4" width="193" height="318"/>
      <rect class="cls-5" x="0.5" y="0.5" width="192" height="317"/>
    </g>
    <text id="REDIRECT" class="cls-2" transform="translate(225 202)"><tspan x="0" y="29">REDIRECT</tspan></text>
    <g id="Rectangle_2" data-name="Rectangle 2" class="cls-1" transform="translate(223 247)">
      <rect class="cls-4" width="152" height="233"/>
      <rect class="cls-5" x="0.5" y="0.5" width="151" height="232"/>
    </g>
    <g id="Rectangle_3" data-name="Rectangle 3" class="cls-1" transform="translate(241 264)">
      <rect class="cls-4" width="121" height="80"/>
      <rect class="cls-5" x="0.5" y="0.5" width="120" height="79"/>
    </g>
    <g id="Rectangle_4" data-name="Rectangle 4" class="cls-1" transform="translate(280 319)">
      <rect class="cls-4" width="45" height="18"/>
      <rect class="cls-5" x="0.5" y="0.5" width="44" height="17"/>
    </g>
    <g id="Rectangle_5" data-name="Rectangle 5" class="cls-1" transform="translate(241 369)">
      <rect class="cls-4" width="121" height="80"/>
      <rect class="cls-5" x="0.5" y="0.5" width="120" height="79"/>
    </g>
    <g id="Rectangle_6" data-name="Rectangle 6" class="cls-1" transform="translate(280 424)">
      <rect class="cls-4" width="45" height="18"/>
      <rect class="cls-5" x="0.5" y="0.5" width="44" height="17"/>
    </g>
    <line id="Line_1" data-name="Line 1" class="cls-3" x2="88" transform="translate(259.5 278.5)"/>
    <line id="Line_2" data-name="Line 2" class="cls-3" x2="76" transform="translate(264.5 288.5)"/>
    <line id="Line_3" data-name="Line 3" class="cls-3" x2="88" transform="translate(259.5 298.5)"/>
    <line id="Line_4" data-name="Line 4" class="cls-3" x2="88" transform="translate(259.5 383.5)"/>
    <line id="Line_5" data-name="Line 5" class="cls-3" x2="76" transform="translate(264.5 393.5)"/>
    <line id="Line_6" data-name="Line 6" class="cls-3" x2="88" transform="translate(259.5 403.5)"/>
  </g>
</svg>
